<svg id="eac55afd-fa21-4a08-b7ce-ab811732727c" data-name="Layer 1" xmlns="http://www.w3.org/2000/svg" viewBox="0 0 24 24"><defs><style>.ae6f4787-a83c-46db-8ea9-813c227fd7f2{fill:#5b3b28;}</style></defs><title>icon-news</title><path class="ae6f4787-a83c-46db-8ea9-813c227fd7f2" d="M20.57,1.66H18A1.87,1.87,0,0,0,16.19,0H7.81A1.87,1.87,0,0,0,6,1.66H3.43A1.88,1.88,0,0,0,1.56,3.54V22.13A1.87,1.87,0,0,0,3.43,24H20.57a1.87,1.87,0,0,0,1.87-1.87V3.54A1.88,1.88,0,0,0,20.57,1.66Zm-.38,20.09H3.81V3.91H6A1.85,1.85,0,0,0,7.81,5.55h8.38A1.85,1.85,0,0,0,18,3.91h2.15Z"/><path class="ae6f4787-a83c-46db-8ea9-813c227fd7f2" d="M16.14,7.37H7.86a1.16,1.16,0,1,0,0,2.32h8.28a1.16,1.16,0,1,0,0-2.32Z"/><path class="ae6f4787-a83c-46db-8ea9-813c227fd7f2" d="M16.14,12.15H7.86a1.16,1.16,0,0,0,0,2.32h8.28a1.16,1.16,0,0,0,0-2.32Z"/><path class="ae6f4787-a83c-46db-8ea9-813c227fd7f2" d="M16.14,16.93H7.86a1.16,1.16,0,0,0,0,2.32h8.28a1.16,1.16,0,0,0,0-2.32Z"/></svg>