<svg id="a51e802d-6228-4354-b9a3-b31f5e7d2678" data-name="filter" xmlns="http://www.w3.org/2000/svg" viewBox="0 0 24 24"><defs><style>.a8ca8824-3c93-461c-b3df-089ea7a8b686{fill:#fff;}</style></defs><title>icon-filter</title><path class="a8ca8824-3c93-461c-b3df-089ea7a8b686" d="M12,9a1,1,0,1,1-1,1A1,1,0,0,1,12,9Zm0-2a3,3,0,1,0,3,3A3,3,0,0,0,12,7ZM3,11a3,3,0,1,0,3,3A3,3,0,0,0,3,11Zm18,0a3,3,0,1,0,3,3A3,3,0,0,0,21,11ZM12,5a4.71,4.71,0,0,1,1,.1V2a1,1,0,0,0-2,0V5.1A4.71,4.71,0,0,1,12,5Zm9,4a4.71,4.71,0,0,1,1,.1V2a1,1,0,0,0-2,0V9.1A4.71,4.71,0,0,1,21,9Zm0,10a5.47,5.47,0,0,1-1-.1V22a1,1,0,0,0,2,0V18.9A5.47,5.47,0,0,1,21,19ZM3,9a4.71,4.71,0,0,1,1,.1V2A1,1,0,0,0,2,2V9.1A4.71,4.71,0,0,1,3,9Zm9,6a5.47,5.47,0,0,1-1-.1V22a1,1,0,0,0,2,0V14.9A5.47,5.47,0,0,1,12,15ZM3,19a5.47,5.47,0,0,1-1-.1V22a1,1,0,0,0,2,0V18.9A5.47,5.47,0,0,1,3,19Z"/></svg>