<?xml version="1.0" encoding="UTF-8" standalone="no"?>
<!-- Created with Inkscape (http://www.inkscape.org/) -->

<svg
   width="500"
   height="500"
   viewBox="0 0 132.29166 132.29167"
   version="1.1"
   id="svg29187"
   inkscape:version="1.2.2 (732a01da63, 2022-12-09)"
   sodipodi:docname="Aquatic.svg"
   inkscape:export-filename="..\Aquatic.png"
   inkscape:export-xdpi="96"
   inkscape:export-ydpi="96"
   xmlns:inkscape="http://www.inkscape.org/namespaces/inkscape"
   xmlns:sodipodi="http://sodipodi.sourceforge.net/DTD/sodipodi-0.dtd"
   xmlns="http://www.w3.org/2000/svg"
   xmlns:svg="http://www.w3.org/2000/svg">
  <sodipodi:namedview
     id="namedview29189"
     pagecolor="#ffffff"
     bordercolor="#000000"
     borderopacity="0.25"
     inkscape:showpageshadow="2"
     inkscape:pageopacity="0.0"
     inkscape:pagecheckerboard="0"
     inkscape:deskcolor="#d1d1d1"
     inkscape:document-units="mm"
     showgrid="false"
     inkscape:zoom="0.84096521"
     inkscape:cx="-24.971307"
     inkscape:cy="359.11117"
     inkscape:window-width="2560"
     inkscape:window-height="1494"
     inkscape:window-x="-11"
     inkscape:window-y="-11"
     inkscape:window-maximized="1"
     inkscape:current-layer="layer2" />
  <defs
     id="defs29184" />
  <g
     inkscape:label="Layer 1"
     inkscape:groupmode="layer"
     id="layer1"
     transform="translate(126.55262,-250.98975)">
    <g
       inkscape:groupmode="layer"
       id="layer2"
       inkscape:label="Layer1"
       style="display:inline"
       transform="matrix(0.80645163,0,0,0.80645163,-137.2213,240.32107)">
      <path
         style="display:inline;fill:#04dbf6;fill-opacity:1;stroke:none;stroke-width:0.264583"
         d="M 13.229167,177.27083 H 177.27083 V 31.75 c 0,0 -109.344755,1.268661 -164.041663,2.083594 z"
         id="path15290"
         sodipodi:nodetypes="ccccc"
         inkscape:label="Water" />
      <path
         style="fill:#139b6d;fill-opacity:1;stroke:none;stroke-width:0.264583"
         d="m 113.03921,119.20546 c 0.86186,2.8732 -0.4104,6.23712 0.85091,8.95874 1.35824,2.93078 4.38522,4.75472 6.76859,6.93505 1.40394,1.28434 4.05053,1.7426 4.42306,3.60856 0.73968,3.70499 -1.96806,8.31959 -5.35781,9.98802 -2.18547,1.07569 -5.04319,-0.0776 -7.2099,-1.19062 -2.13568,-1.09705 -3.3042,-3.49197 -5.09323,-5.09323 -1.99875,-1.78896 -4.03373,-3.56684 -6.28385,-5.02709 -2.207801,-1.43278 -5.288251,-1.63663 -7.016162,-3.62197 -1.726149,-1.98331 -4.56279,-5.67346 -2.616487,-7.44124 1.639431,-1.48905 4.066017,3.82299 6.0277,2.79498 0.747909,-0.39194 0.642366,-1.67845 0.431607,-2.49611 -0.385621,-1.49605 -2.568088,-2.10718 -2.899038,-3.61627 -0.419208,-1.91153 -0.518327,-5.41505 1.418212,-5.697 1.902443,-0.27699 1.559329,3.6203 2.931285,4.96706 0.804673,0.78989 1.817093,1.65579 2.944633,1.66495 0.9373,0.008 2.26453,-0.42953 2.46997,-1.34406 0.35129,-1.56378 -3.5291,-2.43926 -2.8347,-3.88376 0.79718,-1.6583 4.0014,0.80363 5.51452,-0.24323 1.59788,-1.10549 0.35225,-5.27753 2.29356,-5.35887 2.29874,-0.0963 2.57609,3.89234 3.23713,6.09609 z"
         id="path16064"
         sodipodi:nodetypes="aaaaaaaaaaaaaaaaaaaaa"
         inkscape:label="Anem" />
      <path
         style="display:inline;fill:#2d4039;fill-opacity:1;stroke:none;stroke-width:0.264583"
         d="m 13.229167,164.04166 c 0,0 9.465587,0.26581 14.155208,0.8599 4.255563,0.5391 8.346531,2.58636 12.633854,2.4474 5.740638,-0.18607 11.058406,-3.13534 16.668749,-4.36563 6.780693,-1.48693 14.016661,-1.17073 20.505209,-3.63802 5.273637,-2.00531 9.088942,-7.01568 14.419791,-8.86354 5.390312,-1.86848 11.953292,0.67695 16.999472,-1.98437 5.19757,-2.74116 8.57003,-8.246 11.57553,-13.29532 1.99836,-3.35729 2.41238,-7.45696 4.10104,-10.98021 2.4613,-5.13532 4.79537,-10.56874 8.73124,-14.68437 2.44297,-2.55455 5.63538,-4.38113 8.86355,-5.82083 3.39459,-1.51392 7.4304,-1.23695 10.78177,-2.84428 3.03547,-1.455823 5.11085,-4.497463 8.12208,-6.002772 2.70097,-1.350206 5.68256,-2.222232 8.67896,-2.596182 2.58403,-0.322486 7.80521,0.33073 7.80521,0.33073 V 177.27083 H 13.229167 Z"
         id="path15293"
         sodipodi:nodetypes="caaaaaaaaaaaaacccc"
         inkscape:label="Rock" />
      <path
         style="fill:#139b6d;fill-opacity:1;stroke:none;stroke-width:0.264583"
         d="m 64.690624,126.73542 c 2.270394,0.30046 2.255853,4.054 2.778125,6.28385 1.03176,4.4051 0.637263,9.03577 0.595313,13.55989 -0.03769,4.06469 -0.498356,8.11445 -0.760678,12.17084 -0.277368,4.28906 2.161949,9.80898 -0.859895,12.86536 -1.788169,1.8086 -5.093817,0.20332 -7.606771,0.59531 -2.137445,0.33342 -4.187384,1.10764 -6.316927,1.48828 -3.378627,0.6039 -6.792531,1.06841 -10.219531,1.25678 -3.511728,0.19303 -7.829306,2.09614 -10.55026,-0.1323 -3.159674,-2.58774 -1.343514,-8.08366 -2.565016,-11.98082 -0.8239,-2.62863 -2.483052,-4.96089 -3.192022,-7.62282 -0.892826,-3.35224 -1.151784,-6.8609 -1.287493,-10.32734 -0.113111,-2.88919 -0.229888,-5.84246 0.396874,-8.66511 0.620411,-2.79405 0.412684,-7.99426 3.274219,-7.9375 2.688522,0.0533 2.293831,4.92862 2.778125,7.5737 0.561917,3.06904 -0.265469,6.26097 0.09922,9.35963 0.249764,2.1222 0.689085,4.24362 1.422135,6.25079 0.655469,1.79475 2.029664,3.27923 2.629784,5.09323 1.038579,3.13935 -0.04904,6.92548 1.60355,9.78958 0.51287,0.88886 1.363053,2.07928 2.381249,1.9513 1.18138,-0.14849 1.713143,-1.75713 2.116668,-2.87734 1.17509,-3.26212 0.648867,-6.918 0.595311,-10.3849 -0.06769,-4.38212 -1.119895,-8.71439 -1.157551,-13.09687 -0.04007,-4.66383 0.896757,-9.29376 0.992187,-13.95678 0.08259,-4.03587 -1.051475,-8.12697 -0.363803,-12.10468 0.840976,-4.86447 0.489584,-14.40011 5.388939,-13.79463 3.886346,0.48028 1.365578,7.6818 1.831537,11.55293 0.324283,2.6941 0.357825,5.41748 0.669682,8.11304 0.338786,2.92833 1.011832,5.81356 1.304114,8.74689 0.410426,4.11902 0.56727,8.26337 0.628385,12.40234 0.03858,2.61306 -0.79897,5.30291 -0.165364,7.83828 0.481061,1.92496 0.995365,4.67334 2.910416,5.19245 2.208116,0.59856 4.662473,-1.56149 5.920052,-3.47265 2.259439,-3.4337 1.179709,-8.14081 1.521354,-12.23699 0.278813,-3.34284 -0.755115,-6.91601 0.429948,-10.05416 0.520664,-1.37876 1.317066,-3.63293 2.778124,-3.43958 z"
         id="path16268"
         sodipodi:nodetypes="aaaaaaaaaaaaaaaaaaaaaaaaasaaaaaaaaaa"
         inkscape:label="Seaweed" />
      <circle
         style="fill:#fbfefe;fill-opacity:1;stroke:none;stroke-width:0.264583"
         id="path22199"
         cx="57.389446"
         cy="82.178703"
         r="5.5658879"
         inkscape:label="Bubble" />
      <ellipse
         style="fill:#fbfefe;fill-opacity:1;stroke:none;stroke-width:0.264583"
         id="path25512"
         cx="45.181911"
         cy="55.144382"
         rx="7.3900023"
         ry="7.5303187"
         inkscape:label="Bubble" />
      <path
         style="fill:#fbfefe;fill-opacity:1;stroke:none;stroke-width:0.264583"
         d="m 177.27083,13.229167 v 18.785416 c -4.23333,1.852084 -6.69979,0.926714 -10.05416,1.35599 -2.81984,0.36087 -5.63038,0.832434 -8.46667,1.02526 -4.69985,0.31952 -9.42015,0.154973 -14.13046,0.215569 -7.66696,0.09863 -15.33394,0.249604 -23.00153,0.240914 -11.1985,-0.01269 -22.394918,-0.309083 -33.592792,-0.428001 -11.006827,-0.116889 -22.013745,-0.310819 -33.021151,-0.280633 -10.879564,0.02983 -21.756113,0.501843 -32.635623,0.456373 -3.047159,-0.01274 -9.139277,-0.204222 -9.139277,-0.204222 V 13.229167 Z"
         id="path26343"
         sodipodi:nodetypes="ccaaaaaaaccc"
         inkscape:label="Air" />
    </g>
  </g>
</svg>
