<svg xmlns="http://www.w3.org/2000/svg" width="714.961" height="567.274" viewBox="0 0 714.961 567.274">
  <path d="M484.358,567.273h0Zm0,0ZM0,567.273c8.486-52.935,19.158-88.77,31.72-106.51a74.523,74.523,0,0,1,12.828-13.734,126.72,126.72,0,0,1,16.417-11.623c11.894-7.208,25.188-13.389,39.263-19.933l.032-.014.011-.005c9.213-4.283,18.74-8.712,27.832-13.454a175.247,175.247,0,0,0,35.948-22.26,78.134,78.134,0,0,0,23.038-30.717,134.688,134.688,0,0,1-37.729-31.83,163.171,163.171,0,0,1-24.819-42.181,180.043,180.043,0,0,1-11.686-47.19c-1.113-6.677-1.113-13.327-1.113-20.367.005-1.763.036-3.548.091-5.3h260.25c.055,1.8.085,3.583.09,5.3a176.317,176.317,0,0,1-1.224,20.367,179.88,179.88,0,0,1-11.129,47.19,160.307,160.307,0,0,1-24.93,42.181,134.323,134.323,0,0,1-37.618,32.5A79.534,79.534,0,0,0,320.2,380.408a176.026,176.026,0,0,0,36.06,22.26c8.581,4.33,17.56,8.419,26.244,12.372,14.378,6.547,27.954,12.728,40.152,20.005A128.126,128.126,0,0,1,439.485,446.8a75.262,75.262,0,0,1,13.154,13.961c12.561,17.74,23.233,53.575,31.719,106.51ZM58.942,519.62A17.735,17.735,0,0,0,75.47,537.273H194.65a17.692,17.692,0,0,0,0-35.307H75.47A17.735,17.735,0,0,0,58.942,519.62Zm442.3-4.655c-6.151-28.651-16.086-52.721-29.529-71.542-13.483-18.876-36.3-37.548-67.806-55.5,5.773-2.7,11.956-5.628,18.056-8.81a144.1,144.1,0,0,0,29.565-18.3,64.238,64.238,0,0,0,18.948-25.248,110.8,110.8,0,0,1-31.03-26.163,134.05,134.05,0,0,1-20.413-34.672,148.017,148.017,0,0,1-8.968-33.669c2.669-8.55,4.971-17.371,6.84-26.218H622.621c.045,1.472.069,2.938.074,4.359a144.777,144.777,0,0,1-1.007,16.741,147.8,147.8,0,0,1-9.153,38.787,131.719,131.719,0,0,1-20.5,34.672,110.454,110.454,0,0,1-30.938,26.712,65.364,65.364,0,0,0,18.856,25.248,144.646,144.646,0,0,0,29.657,18.3c7.03,3.546,14.383,6.893,21.494,10.129l.076.034.015.006.007,0c11.821,5.38,22.987,10.461,33.016,16.439a105.568,105.568,0,0,1,13.844,9.664,61.913,61.913,0,0,1,10.818,11.475c10.331,14.583,19.108,44.038,26.087,87.548Zm183.9-319.019H481.478A54.513,54.513,0,0,0,501.783,153.5c0-29.232-22.841-52.728-53.13-54.653h-27.72c-1.41-9.788-3.2-19.3-5.336-28.273,7.1-6.431,17.994-11.539,32.381-15.179a205.623,205.623,0,0,1,29.048-4.9,384.006,384.006,0,0,1,38.848-1.8c14.193,0,27.259.59,38.836,1.752a209.441,209.441,0,0,1,29.026,4.789C598.849,58.975,610.11,64.315,617.2,71.1c4.606,4.6,9.081,12.793,12.94,23.682a208.508,208.508,0,0,1,9.3,40.354c.031,6.508.085,12.777.161,18.634H685.6a21.219,21.219,0,0,1,14.109,6.644,21.052,21.052,0,0,1,0,28.885,21.212,21.212,0,0,1-14.109,6.643ZM448.654,179.151h0Zm-.559,0H91.177c-.464-5.273-1.616-18.047-2.306-22.781H88.48a378.454,378.454,0,0,1,2.576-44.548A293.969,293.969,0,0,1,97.9,74.192a169.676,169.676,0,0,1,9.786-28.678c3.622-7.879,7.458-13.831,11.4-17.691,8.579-8.4,22.256-15.015,40.65-19.671a249.715,249.715,0,0,1,35.319-5.964A466.2,466.2,0,0,1,242.29,0c17.255,0,33.142.717,47.219,2.132A254.084,254.084,0,0,1,324.8,7.958c18.376,4.552,32.067,11.048,40.693,19.31,5.6,5.6,11.041,15.564,15.734,28.812,4.89,13.8,8.8,30.78,11.31,49.1.04,8.552.11,16.065.2,22.67h55.919a25.7,25.7,0,0,1,0,51.307Z" fill="#5b3b28"/>
</svg>
