<?xml version="1.0" encoding="UTF-8" standalone="no"?>
<!-- Created with Inkscape (http://www.inkscape.org/) -->

<svg
   width="200"
   height="200"
   viewBox="0 0 52.916665 52.916666"
   version="1.1"
   id="svg14677"
   inkscape:version="1.2.2 (732a01da63, 2022-12-09)"
   sodipodi:docname="Female.svg"
   inkscape:export-filename="Male.png"
   inkscape:export-xdpi="96"
   inkscape:export-ydpi="96"
   xmlns:inkscape="http://www.inkscape.org/namespaces/inkscape"
   xmlns:sodipodi="http://sodipodi.sourceforge.net/DTD/sodipodi-0.dtd"
   xmlns="http://www.w3.org/2000/svg"
   xmlns:svg="http://www.w3.org/2000/svg">
  <sodipodi:namedview
     id="namedview14679"
     pagecolor="#ffffff"
     bordercolor="#000000"
     borderopacity="0.25"
     inkscape:showpageshadow="2"
     inkscape:pageopacity="0.0"
     inkscape:pagecheckerboard="0"
     inkscape:deskcolor="#d1d1d1"
     inkscape:document-units="mm"
     showgrid="false"
     inkscape:zoom="2.6175"
     inkscape:cx="70.296084"
     inkscape:cy="119.9618"
     inkscape:window-width="2560"
     inkscape:window-height="1494"
     inkscape:window-x="-11"
     inkscape:window-y="-11"
     inkscape:window-maximized="1"
     inkscape:current-layer="svg14677" />
  <defs
     id="defs14674" />
  <ellipse
     style="fill:#db588d;fill-opacity:1;stroke:none;stroke-width:0.221332;stroke-opacity:1"
     id="ellipse12383"
     cx="26.458334"
     cy="26.458336"
     rx="26.458334"
     ry="26.458336"
     inkscape:label="Female" />
  <path
     id="ellipse12454"
     style="fill:#fffefe;fill-opacity:1;stroke:none;stroke-width:0.353758;stroke-opacity:1"
     d="m 26.45834,9.354852 a 11.017951,11.051588 0 0 0 -11.018147,11.05152 11.017951,11.051588 0 0 0 9.363376,10.92563 v 0.23954 3.67707 h -4.325978 v 3.24449 h 4.325978 v 4.32598 h 3.244483 v -4.32598 h 4.325978 v -3.24449 h -4.325978 v -3.90816 A 11.017951,11.051588 0 0 0 37.476487,20.406372 11.017951,11.051588 0 0 0 26.45834,9.354852 Z m 0,4.601 a 6.4308481,6.4504801 0 0 1 6.430668,6.45052 6.4308481,6.4504801 0 0 1 -6.430668,6.45053 6.4308481,6.4504801 0 0 1 -6.430667,-6.45053 6.4308481,6.4504801 0 0 1 6.430667,-6.45052 z"
     inkscape:label="Female Sign" />
</svg>
