<svg id="f1687837-6c65-4557-8221-2a7edd5f4ea5" data-name="Layer 1" xmlns="http://www.w3.org/2000/svg" viewBox="0 0 32 32.1"><defs><style>.a30eed32-965a-4a7b-83fa-b3b4bb86c84c{fill:#5b3b28;}</style></defs><title>game-modes</title><g id="bda3c6cd-5f59-49cc-9199-f594e26b3c14" data-name="iconTradingHabitats"><path class="a30eed32-965a-4a7b-83fa-b3b4bb86c84c" d="M16.07,15.73h0c-3.57,0-6.86,3.7-9,7.24s-3.17,5.73-2,7.43,2.65,1.82,4.74,1.52,2.83-2.14,6.21-2.14,4.11,1.85,6.2,2.14,3.55.19,4.75-1.52.13-3.89-2-7.43S19.64,15.74,16.07,15.73Z"/><path class="a30eed32-965a-4a7b-83fa-b3b4bb86c84c" d="M30.47,9.11C27.9,8,25.25,10.94,24.52,13.33s-.69,5.26,1.63,5.88,4.63-2.05,5.36-4.25S32.17,9.86,30.47,9.11Z"/><path class="a30eed32-965a-4a7b-83fa-b3b4bb86c84c" d="M20.85.05C17.25.05,17,4.67,17,6.44s.95,5.9,3.87,5.81,4-3.51,4-6.38S23.46.05,20.85.05Z"/><path class="a30eed32-965a-4a7b-83fa-b3b4bb86c84c" d="M1.53,9.11c2.57-1.13,5.22,1.83,6,4.22s.69,5.26-1.63,5.88S1.22,17.16.49,15-.17,9.86,1.53,9.11Z"/><path class="a30eed32-965a-4a7b-83fa-b3b4bb86c84c" d="M11.15.05C14.75.05,15,4.67,15,6.44s-.95,5.9-3.87,5.81-4-3.51-4-6.38S8.54.05,11.15.05Z"/></g></svg>