<svg id="Layer_1" data-name="Layer 1" xmlns="http://www.w3.org/2000/svg" viewBox="0 0 200 131.22"><defs><style>.cls-1{fill:#fff;}</style></defs><title>icon-planet-zoo</title><path class="cls-1" d="M150.46,82.46h0c.78.15,1.54.29,2.27.39,1.55.24,3.09.4,4.6.5.94,0,1.89.08,2.82.08,1.5,0,3-.08,4.4-.22a66.25,66.25,0,0,0,.52-33c-1.4-.53-2.7-1-3.91-1.31-1.52-.44-3.23-.88-5.07-1.33s-3.43-.8-5.13-1.14L149,46a62,62,0,0,1,1.46,36.44Z"/><path class="cls-1" d="M147,103l-1.63-.22-.4-.06c-.4,0-.8-.11-1.31-.21-.86-.17-1.7-.35-2.56-.56a58.62,58.62,0,0,1-5.21,6.28A54.4,54.4,0,0,1,96.48,125.4h-.16a53.62,53.62,0,0,1-13.65-1.76,61.16,61.16,0,0,1-28.34-19.16h0a61.1,61.1,0,0,1-11.42-21h0c-.12-.37-.23-.74-.33-1.12a1.82,1.82,0,0,1-.07-.25c-.22-.8-.44-1.61-.63-2.42-.07-.27-.13-.55-.2-.82l-.24-1.12c-.08-.4-.15-.8-.23-1.2s-.16-.9-.23-1.35-.13-.88-.2-1.32-.07-.59-.11-.88c-.07-.58-.14-1.16-.19-1.75l-.06-.63c0-.61-.09-1.21-.12-1.82l0-.68c0-.7,0-1.41-.06-2.12v-.06h0v0c0-.13,0-.26,0-.4,0-.86,0-1.72.09-2.58,0-.24,0-.48.05-.72.06-.77.11-1.55.19-2.31l.06-.42c.09-.87.21-1.75.34-2.62,0,0,0-.07,0-.1a61.56,61.56,0,0,1,1.57-7.18,55.13,55.13,0,0,1,15.56,2A79.43,79.43,0,0,1,76.36,59,155.22,155.22,0,0,1,93.9,70.25c2.88,2.1,5.82,4.22,8.73,6.41s5.87,4.42,9,6.68,6.33,4.47,9.77,6.54c2.34,1.41,4.79,2.74,7.31,4,1.17.57,2.35,1.12,3.55,1.63.94.41,1.9.77,2.87,1.15s2,.74,3,1.06a56.83,56.83,0,0,0,6.28,1.62c.63.12,1.08.17,1.6.25s1,.14,1.53.21c1,.12,2,.23,3.07.31q3.09.24,6.19.2a55.83,55.83,0,0,0,24.33-5.41,46.84,46.84,0,0,0,10.6-7l1.17-1.08c.43-.42.89-.85,1.29-1.32a21.81,21.81,0,0,0,2.27-3,22.82,22.82,0,0,0,2.9-6.78,24.38,24.38,0,0,0-.86-14.08,27.44,27.44,0,0,0-7.66-11.15A56.48,56.48,0,0,0,186,46.7a60,60,0,0,0-5.09-3.18A65.85,65.85,0,0,0,170,38.67c-1.88-.64-3.79-1.22-5.73-1.68s-3.71-.84-5.57-1.22-3.72-.71-5.6-1c-1.18-.19-4.59-.51-7.51-.79a13.3,13.3,0,0,0-7-6.73h0l-.12,0-.21-.08a24.8,24.8,0,0,0-14.43-.91c-16.8,3.52-22.74-2.1-22.74-2.1,8.41,20.79,27.51,22.83,27.51,22.83-1.73,2.08-6.54,1.85-6.54,1.85,1.58,1.51,5.55,3.07,7.25,3.59a13.39,13.39,0,0,0,17.3-10.23c1.58.25,3.34.57,5,.91s3.5.75,5.25,1.17,3.49.88,5.19,1.36,3.23,1,4.81,1.65A54.54,54.54,0,0,1,176,51.84a48.77,48.77,0,0,1,4.15,2.9A46.14,46.14,0,0,1,183.85,58a16.83,16.83,0,0,1,4.41,7.1,13.32,13.32,0,0,1,.13,7.7,11.51,11.51,0,0,1-1.6,3.26,10.11,10.11,0,0,1-1.17,1.36c-.21.23-.44.4-.67.62l-.91.76A33.18,33.18,0,0,1,176,83.53a42.52,42.52,0,0,1-18.83,2.87c-1.63-.09-3.26-.27-4.88-.52-.81-.12-1.62-.26-2.42-.42l-1.21-.25c-.39-.09-.85-.18-1.13-.26a40,40,0,0,1-4.4-1.44c-.75-.29-1.49-.6-2.17-.9s-1.48-.7-2.21-1.08c-1-.49-2-1-2.92-1.57a103.05,103.05,0,0,1-14-9.89l-8.47-7c-2.88-2.36-5.77-4.78-8.8-7.08a176.16,176.16,0,0,0-19.3-13.06,96.2,96.2,0,0,0-22.46-9.38,78.76,78.76,0,0,0-11.57-2.17,57.69,57.69,0,0,1,5.52-6.71A54.5,54.5,0,0,1,96.23,7.45h.19a54.94,54.94,0,0,1,37.51,14.81,26.41,26.41,0,0,1,4.39,1A18.4,18.4,0,0,1,144.85,27a15.16,15.16,0,0,1,2.79,3.35c2.66.25,5,.47,6,.64,1.43.22,2.87.48,4.32.75a65,65,0,0,0-10.21-12.91A66,66,0,0,0,101.28,0H101A65.59,65.59,0,0,0,45.43,31.1a61.21,61.21,0,0,0-7.76.28,57.15,57.15,0,0,0-12.86,2.77c-1,.36-2.08.75-3.11,1.17L20.17,36c-.54.24-1.11.51-1.66.79a37.41,37.41,0,0,0-6.24,4A33.45,33.45,0,0,0,2.73,52.67,29.12,29.12,0,0,0,.32,60.5,27.27,27.27,0,0,0,0,64.75a26.68,26.68,0,0,0,1.42,8.54l.37,1,.37.91c.25.6.52,1.18.8,1.76a36.6,36.6,0,0,0,4,6.35A45.93,45.93,0,0,0,17,92.85,60.15,60.15,0,0,0,28.5,99.08a76.76,76.76,0,0,0,12,3.69c2,.42,4,.79,6,1.09l.76.11a64.88,64.88,0,0,0,6.07,7.42,59.78,59.78,0,0,0,28.05,16.76,65.07,65.07,0,0,0,19.78,3.07h.24a65.18,65.18,0,0,0,46.18-19.17,67.29,67.29,0,0,0,7.19-8.52c-1.5,0-3-.09-4.51-.21C149.19,103.25,148.11,103.14,147,103ZM36.23,81.06a50.16,50.16,0,0,1-7.91-4.39,31.21,31.21,0,0,1-6.15-5.4,14.23,14.23,0,0,1-3.06-5.44,8.42,8.42,0,0,1,.66-5.21,14.88,14.88,0,0,1,4.1-5.28,15.09,15.09,0,0,1,3-2c.27-.14.53-.26.84-.4l1-.43c.68-.28,1.36-.53,2.06-.77a38.14,38.14,0,0,1,6.57-1.58,65.35,65.35,0,0,0-1.87,15.48c0,.14,0,.29,0,.44s0,.3,0,.46a66.92,66.92,0,0,0,1.66,14.9Z"/></svg>