<?xml version="1.0" encoding="UTF-8" standalone="no"?>
<!-- Created with Inkscape (http://www.inkscape.org/) -->

<svg
   width="500"
   height="500"
   viewBox="0 0 500 500"
   version="1.1"
   id="svg3662"
   inkscape:version="1.2.2 (732a01da63, 2022-12-09)"
   sodipodi:docname="Tropical.svg"
   xmlns:inkscape="http://www.inkscape.org/namespaces/inkscape"
   xmlns:sodipodi="http://sodipodi.sourceforge.net/DTD/sodipodi-0.dtd"
   xmlns="http://www.w3.org/2000/svg"
   xmlns:svg="http://www.w3.org/2000/svg">
  <sodipodi:namedview
     id="namedview3664"
     pagecolor="#ffffff"
     bordercolor="#000000"
     borderopacity="0.25"
     inkscape:showpageshadow="2"
     inkscape:pageopacity="0.0"
     inkscape:pagecheckerboard="0"
     inkscape:deskcolor="#d1d1d1"
     inkscape:document-units="mm"
     showgrid="false"
     inkscape:zoom="0.84096521"
     inkscape:cx="-233.66008"
     inkscape:cy="303.22301"
     inkscape:window-width="2560"
     inkscape:window-height="1494"
     inkscape:window-x="-11"
     inkscape:window-y="-11"
     inkscape:window-maximized="1"
     inkscape:current-layer="layer1-4" />
  <defs
     id="defs3659" />
  <g
     inkscape:label="Layer 1"
     inkscape:groupmode="layer"
     id="layer1">
    <g
       inkscape:label="Layer 1"
       inkscape:groupmode="layer"
       id="layer1-4"
       style="display:inline"
       transform="matrix(2.7190847,0,0,2.7190847,-32.374102,-179.85612)">
      <path
         style="fill:#b8da96;fill-opacity:1;stroke:none;stroke-width:0.264583"
         d="M 11.90625,66.145832 V 250.03125 H 195.79166 V 66.145832 Z"
         id="path3571"
         inkscape:label="Background" />
      <path
         style="display:inline;fill:#3e9b46;fill-opacity:1;stroke:none;stroke-width:0.264583"
         d="m 41.105851,170.36692 c 0.220743,-4.58796 8.865268,-2.78067 13.454332,-2.97736 5.16003,-0.22115 10.316515,0.92513 15.359269,2.04112 6.410162,1.41861 12.81315,3.18195 18.795762,5.88583 4.295339,1.94131 8.544546,4.22925 12.088776,7.33683 4.583,4.01836 8.30569,9.03547 11.44921,14.25748 2.8021,4.65486 6.06057,9.54822 6.45456,14.9671 0.41905,5.76346 -1.52861,11.78233 -4.49013,16.74443 -2.57693,4.31772 -6.14526,8.93578 -10.969,10.35521 -6.80803,2.00334 -14.704314,-0.49356 -20.929617,-3.90065 -4.039709,-2.21092 -5.83328,-7.22805 -9.452679,-10.0754 -3.086216,-2.42789 -6.608813,-4.33416 -10.247233,-5.81108 -3.479126,-1.41226 -7.149979,-2.64153 -10.899293,-2.84508 -3.934956,-0.21364 -7.834178,0.94027 -11.694988,1.73 -3.330671,0.68128 -7.350581,4.87736 -9.864797,2.58908 -1.700535,-1.54772 0.0018,-4.79631 1.117024,-6.80717 1.455546,-2.62451 4.235815,-4.32522 6.764538,-5.94145 2.92948,-1.87237 6.204714,-3.23205 9.537629,-4.22165 4.542526,-1.34876 9.296016,-2.14333 14.03279,-2.27246 4.482896,-0.12221 8.968799,0.60587 13.378119,1.42391 3.73356,0.69267 8.376654,5.6771 11.006465,2.93787 2.847759,-2.96624 -1.373663,-8.36425 -3.664277,-11.77913 -1.980077,-2.95192 -5.481863,-4.52631 -8.219414,-6.79355 -3.798514,-3.14593 -7.112355,-6.98736 -11.386151,-9.44912 -2.672751,-1.53953 -5.769596,-2.18573 -8.684379,-3.1946 -4.284382,-1.48292 -13.154399,0.32837 -12.936516,-4.20016 z"
         id="path1422"
         sodipodi:nodetypes="aaaaaaaaaaaaaaaaaaaaaaaaaa"
         inkscape:label="Fern" />
      <path
         style="display:inline;fill:#3e9b46;fill-opacity:1;stroke:none;stroke-width:0.264583"
         d="M 106.89167,66.145832 H 94.985415 c 0,0 -3.379467,9.342694 -4.561975,14.157847 -1.472278,5.995093 -0.679737,12.587562 -3.1316,18.252994 -2.475398,5.719817 -7.778138,9.756717 -11.270214,14.919017 -2.273261,3.36053 -3.865007,7.16682 -6.284326,10.42378 -2.676953,3.60379 -5.591615,7.10671 -9.033676,9.98866 -3.953507,3.31017 -8.241717,6.52168 -13.11793,8.19797 -8.535114,2.93412 -17.910032,3.09222 -26.930726,2.80192 -2.956358,-0.0951 -8.748718,-1.48386 -8.748718,-1.48386 v 11.90625 c 0,0 7.600105,1.27271 11.427554,1.16559 9.877288,-0.27645 20.054357,-1.10343 29.276051,-4.65274 6.479784,-2.49398 12.409689,-6.59635 17.454851,-11.36645 6.504593,-6.14997 10.289515,-14.66618 15.891758,-21.64806 3.893369,-4.85217 9.66121,-8.4052 12.294431,-14.04152 3.148425,-6.739085 1.752545,-14.804036 3.443955,-22.047448 1.31657,-5.638188 5.19682,-16.57395 5.19682,-16.57395 z"
         id="path2182"
         sodipodi:nodetypes="ccaaaaaaaccaaaaaac"
         inkscape:label="Vine" />
      <path
         style="display:inline;fill:#6e462a;fill-opacity:1;stroke:none;stroke-width:0.264583"
         d="m 11.90625,250.03125 v -5.29167 c 0,0 3.059416,-0.0712 4.497916,-0.52917 3.158982,-1.00574 5.56904,-3.76696 8.73125,-4.7625 3.808874,-1.19913 7.954201,-0.7513 11.90625,-1.32291 4.533029,-0.65564 9.027244,-1.55876 13.526823,-2.41433 4.76199,-0.90547 9.442743,-2.29073 14.254427,-2.87734 4.030932,-0.49143 8.11326,-0.69045 12.170833,-0.52917 3.773774,0.15 7.535236,0.67979 11.244791,1.38907 3.96334,0.7578 7.70609,3.51947 11.71415,3.0528 3.36788,-0.39213 6.79752,-2.17204 8.99047,-4.75803 3.73228,-4.40121 4.83231,-10.68557 5.48913,-16.41873 0.53189,-4.64274 -1.08061,-9.28995 -1.32292,-13.95677 -0.742,-14.29091 -0.48359,-28.61875 -0.39687,-42.92865 0.0625,-10.32092 4.16874,-21.24933 0.66146,-30.95625 -1.05162,-2.91051 -3.66932,-5.07769 -6.08542,-7.01146 -3.04994,-2.44107 -6.79262,-3.87477 -10.31875,-5.55625 -3.818052,-1.82069 -8.191578,-2.54351 -11.707812,-4.89479 -5.015588,-3.35389 -9.889252,-7.49896 -12.832291,-12.766143 -4.319928,-7.731409 -13.388162,-20.852394 -6.085417,-25.86302 2.707934,-1.857992 5.672279,3.384746 8.135937,5.55625 3.491748,3.077677 6.000558,7.128736 9.260417,10.451041 3.169285,3.229996 5.970039,7.112669 9.988021,9.19427 3.164027,1.639192 6.992685,1.390043 10.451045,2.248959 3.46841,0.861411 7.31369,4.844713 10.31874,2.910413 4.65155,-2.994119 1.72913,-10.928189 2.51355,-16.404163 0.62337,-4.351609 1.43656,-8.687094 1.74255,-13.072461 0.1479,-2.1197 0.0434,-6.374414 0.0434,-6.374414 h 41.53958 c 0,0 0.72908,8.4669 0.83939,12.712042 0.13819,5.318104 -0.66741,10.656827 -0.22309,15.958139 0.42008,5.012203 1.9053,9.878807 2.71944,14.842257 0.85546,5.21534 1.93661,10.41691 2.27441,15.69114 0.6219,9.70996 -0.5802,19.45662 -0.46777,29.18582 0.11972,10.35949 2.22556,20.74585 1.21608,31.05673 -0.96832,9.89054 -2.50465,20.09675 -6.92223,28.99874 -6.79191,13.68657 -21.37711,24.46025 -29.06955,35.44055 z"
         id="path296"
         sodipodi:nodetypes="ccaaaaaaaaaaaaaaaaaaaaaaaaaccaaaaaaacc"
         inkscape:label="Trunk" />
      <path
         style="display:inline;fill:#3e9b46;fill-opacity:1;stroke:none;stroke-width:0.264583"
         d="m 77.258333,66.145833 -65.352083,-10e-7 v 41.010418 c 0,0 4.768788,1.60717 6.635472,3.20337 2.880508,2.4631 4.195288,6.31841 6.473126,9.34754 1.611319,2.14279 3.680137,3.9489 5.081506,6.23451 1.140329,1.85986 0.47958,5.72777 2.645833,5.98619 1.944229,0.23193 3.069965,-2.77068 3.571875,-4.66327 0.849134,-3.2019 -0.770073,-6.58376 -1.33926,-9.84707 -0.531515,-3.04732 -1.55593,-6.00589 -1.936226,-9.07575 -0.302386,-2.44095 -1.433587,-5.20812 -0.267907,-7.37396 0.677863,-1.259472 2.266055,-1.933202 3.66485,-2.231767 1.758988,-0.375446 3.61687,0.209493 5.352777,0.680263 2.97014,0.805484 5.604969,2.556544 8.491784,3.622774 2.162568,0.79873 4.340457,1.60651 6.598197,2.07265 1.886934,0.38957 4.777128,2.25665 5.749653,0.59337 1.144162,-1.95682 -2.606166,-3.70964 -3.925941,-5.55259 -1.193466,-1.666566 -2.657926,-3.162963 -3.610456,-4.978037 -1.797824,-3.425805 -2.797254,-7.225912 -3.860531,-10.945826 -0.675697,-2.363951 -3.069815,-5.235726 -1.593412,-7.201704 1.373922,-1.829514 4.562432,-0.380027 6.849489,-0.444453 3.270655,-0.09213 6.571967,-0.347106 9.815505,0.08317 6.156159,0.81665 13.691146,9.151195 18.026422,4.704782 2.097037,-2.150796 -1.203731,-5.947385 -2.495713,-8.659261 -1.147238,-2.408057 -4.574962,-6.565346 -4.574962,-6.565346 z"
         id="path2945"
         sodipodi:nodetypes="cccaaaaaaaaaaaaaaaaaaaaacc" />
      <path
         style="display:inline;fill:#3e9c46;fill-opacity:1;stroke:none;stroke-width:0.264583"
         d="m 195.79166,250.03125 h -65.08749 c 0,0 -1.11675,-5.56643 -2.38125,-8.06979 -2.36996,-4.69187 -9.07008,-7.33098 -9.525,-12.56771 -0.22104,-2.54444 1.52852,-5.19633 3.50573,-6.81303 2.32351,-1.89986 5.69538,-2.01272 8.6651,-2.44739 7.444,-1.08957 17.07992,4.79919 22.56726,-0.34759 8.79857,-8.2525 -1.30285,-24.75738 2.87149,-36.07522 2.44277,-6.62304 5.60365,-15.3473 12.42981,-17.146 6.0753,-1.60085 12.02809,4.18298 17.14601,7.827 3.85963,2.7481 9.80834,10.28764 9.80834,10.28764 z"
         id="path1287"
         sodipodi:nodetypes="ccaaaaaaaacc"
         inkscape:label="Leaf" />
    </g>
  </g>
</svg>
