<svg id="iconmonstr" xmlns="http://www.w3.org/2000/svg" viewBox="0 0 24 24"><defs><style>.cls-1{fill:#5b3b28;}</style></defs><title>icon-feature-tools</title><path id="tools-5" class="cls-1" d="M23.27,19.74,11.32,7.8a2.73,2.73,0,0,1-.78-2.12A5.27,5.27,0,0,0,5.29,0,5.16,5.16,0,0,0,3.78.22L7,3.39C7.3,5,5,7.3,3.39,7L.22,3.78A5.16,5.16,0,0,0,0,5.29a5.27,5.27,0,0,0,5.68,5.25,2.73,2.73,0,0,1,2.12.78l11.94,12a2.5,2.5,0,0,0,3.53-3.53ZM21.5,22.5a1,1,0,1,1,1-1A1,1,0,0,1,21.5,22.5ZM13.13,6.75,19.85,0,24,4.13,17.28,10.9l-1-1,5.48-5.54a.42.42,0,0,0,0-.6.43.43,0,0,0-.6,0L15.66,9.29l-.93-.94,5.49-5.54a.42.42,0,1,0-.6-.6L14.13,7.75ZM9.94,16.27,4.63,21.62a.43.43,0,0,1-.6,0A.42.42,0,0,1,4,21l5.31-5.35-.94-.94L3.1,20.07a.42.42,0,1,1-.6-.6l5.3-5.34-1-1L1.05,18.91,0,24l5.2-.94L11,17.28Z"/></svg>