<svg id="Info_panel_icons" data-name="Info panel icons" xmlns="http://www.w3.org/2000/svg" viewBox="0 0 20 20"><defs><style>.cls-1{fill:#fff;}</style></defs><title>icon-feature-primary</title><path id="iconHabitat" class="cls-1" d="M9,20H0l3-3.29c2.09-2.32,4.68-2.53,6.87-.62l-.06,2.13ZM19.82,2.38l.14.38a.57.57,0,0,1,0,.46l-.42.88a1,1,0,0,1-.42.45l-1.38.79a3.75,3.75,0,0,1-.95.37L14,6.35,12.18,9.7a.28.28,0,0,0,0,.29l.94,1.29a2.84,2.84,0,0,1,.53,1.43l.39,4.41a1.55,1.55,0,0,0,.31.8L15.9,20H10.15l.29-.48a4.5,4.5,0,0,0,.64-2.2l.11-4.12a2.58,2.58,0,0,0-.34-1.35L9.1,8.75a2.36,2.36,0,0,0-.79-.84L6.64,6.84,5.47,7.2a5.08,5.08,0,0,1-1.73.21L.9,7.25a.94.94,0,0,1-.78-.49h0a1,1,0,0,1,.07-1l.45-.62a1,1,0,0,1,.43-.33L2.9,4.16,5.66,2.74a3.74,3.74,0,0,0,.87-.6l1-1a2.14,2.14,0,0,1,.6-.39L9.78.08a.88.88,0,0,1,.62,0L11,.2a2.92,2.92,0,0,0,.83.12h2a3.09,3.09,0,0,1,.95.15L19.45,2A.58.58,0,0,1,19.82,2.38ZM11.11,8.79l1.54-2.4-1.29-.23a3.4,3.4,0,0,0-.45,0H9.37a2.45,2.45,0,0,0-.76.11L8,6.42l1.56,1a2.93,2.93,0,0,1,.58.53l.67.84A.17.17,0,0,0,11.11,8.79Zm7.41,8.89-.94-5.39S17,18.19,17,18.15a6.18,6.18,0,0,0-1.62-3.24,7.64,7.64,0,0,1,.36,2.78L17.46,20H20c-1.05-1.42,0-4.14,0-4.16A4.5,4.5,0,0,0,18.52,17.68Z"/></svg>