<?xml version="1.0" encoding="UTF-8" standalone="no"?>
<!-- Created with Inkscape (http://www.inkscape.org/) -->

<svg
   width="200"
   height="200"
   viewBox="0 0 52.916665 52.916666"
   version="1.1"
   id="svg14677"
   inkscape:version="1.2.2 (732a01da63, 2022-12-09)"
   sodipodi:docname="Male.svg"
   xmlns:inkscape="http://www.inkscape.org/namespaces/inkscape"
   xmlns:sodipodi="http://sodipodi.sourceforge.net/DTD/sodipodi-0.dtd"
   xmlns="http://www.w3.org/2000/svg"
   xmlns:svg="http://www.w3.org/2000/svg">
  <sodipodi:namedview
     id="namedview14679"
     pagecolor="#ffffff"
     bordercolor="#000000"
     borderopacity="0.25"
     inkscape:showpageshadow="2"
     inkscape:pageopacity="0.0"
     inkscape:pagecheckerboard="0"
     inkscape:deskcolor="#d1d1d1"
     inkscape:document-units="mm"
     showgrid="false"
     inkscape:zoom="3.3638608"
     inkscape:cx="-16.35026"
     inkscape:cy="75.805752"
     inkscape:window-width="2560"
     inkscape:window-height="1494"
     inkscape:window-x="-11"
     inkscape:window-y="-11"
     inkscape:window-maximized="1"
     inkscape:current-layer="layer1" />
  <defs
     id="defs14674" />
  <g
     inkscape:label="Layer 1"
     inkscape:groupmode="layer"
     id="layer1">
    <ellipse
       style="fill:#5a96d2;fill-opacity:1;stroke:none;stroke-width:0.221332;stroke-opacity:1"
       id="ellipse914"
       cx="26.458334"
       cy="26.458336"
       rx="26.458334"
       ry="26.458336"
       inkscape:label="Male" />
    <path
       id="path980"
       style="fill:#fffffe;fill-opacity:1;stroke:none;stroke-width:0.270794"
       inkscape:label="Male Sign"
       d="m 41.007691,12.238336 -13.54952,2.20523 5.93344,2.45533 -4.30232,4.26388 a 10.994614,10.994614 0 0 0 -6.29337,-1.98387 10.994614,10.994614 0 0 0 -10.994491,10.99449 10.994614,10.994614 0 0 0 10.994491,10.99492 10.994614,10.994614 0 0 0 10.99491,-10.99492 10.994614,10.994614 0 0 0 -1.94923,-6.24605 l 4.4147,-4.54397 2.77344,5.60857 z m -18.21177,11.5044 a 6.4309931,6.4309923 0 0 1 6.43109,6.43066 6.4309931,6.4309923 0 0 1 -6.43109,6.43109 6.4309931,6.4309923 0 0 1 -6.430669,-6.43109 6.4309931,6.4309923 0 0 1 6.430669,-6.43066 z" />
  </g>
</svg>
