<svg id="a834be3a-dd8b-46e6-8ecd-aa58d806afda" data-name="Layer 1" xmlns="http://www.w3.org/2000/svg" viewBox="0 0 32 32"><defs><style>.bea79a15-8114-4939-bf1c-93cd72ef1006{fill:#5b3b28;}.f620d14e-c122-4835-918c-b6233bb25fd4{fill:none;opacity:0.1;}</style></defs><title>zoopedia</title><g id="b4712e50-dd0a-42c0-b150-a8d4419864ed" data-name="iconZoopedia"><path class="bea79a15-8114-4939-bf1c-93cd72ef1006" d="M16.62,11.68h0c1.45,0,2.79,1.5,3.64,2.93s1.29,2.33.8,3a1.7,1.7,0,0,1-1.92.62c-.85-.12-1.15-.87-2.52-.87s-1.67.75-2.52.87a1.7,1.7,0,0,1-1.92-.62c-.49-.69-.06-1.58.8-3S15.17,11.68,16.62,11.68Z"/><path class="bea79a15-8114-4939-bf1c-93cd72ef1006" d="M10.77,9c1.05-.45,2.12.75,2.41,1.72s.29,2.13-.65,2.38-1.88-.83-2.18-1.72S10.08,9.3,10.77,9Z"/><path class="bea79a15-8114-4939-bf1c-93cd72ef1006" d="M14.68,5.32c1.45,0,1.56,1.87,1.57,2.59s-.39,2.39-1.57,2.36-1.61-1.43-1.61-2.59S13.62,5.32,14.68,5.32Z"/><path class="bea79a15-8114-4939-bf1c-93cd72ef1006" d="M22.51,9c-1-.45-2.11.75-2.41,1.72s-.28,2.13.66,2.38,1.88-.83,2.17-1.72S23.2,9.3,22.51,9Z"/><path class="bea79a15-8114-4939-bf1c-93cd72ef1006" d="M18.61,5.32C17.15,5.32,17,7.19,17,7.91s.38,2.39,1.57,2.36,1.61-1.43,1.61-2.59S19.67,5.32,18.61,5.32Z"/><path class="bea79a15-8114-4939-bf1c-93cd72ef1006" d="M8.09,23.49H29.16V0H6A3.14,3.14,0,0,0,2.84,3.14v23.4A5.44,5.44,0,0,0,8.28,32H9.55V30H8.09a3.25,3.25,0,0,1-3.25-3.25h0A3.25,3.25,0,0,1,8.09,23.49ZM7.77,11.81a8.88,8.88,0,1,1,8.87,8.87A8.88,8.88,0,0,1,7.77,11.81Z"/><rect class="bea79a15-8114-4939-bf1c-93cd72ef1006" x="19.47" y="29.98" width="9.69" height="2"/><polygon class="bea79a15-8114-4939-bf1c-93cd72ef1006" points="17.47 32 14.51 30.21 11.55 32 11.55 25.46 17.47 25.46 17.47 32"/><rect class="f620d14e-c122-4835-918c-b6233bb25fd4" width="32" height="32"/></g></svg>