<?xml version="1.0" encoding="UTF-8" standalone="no"?>
<!-- Created with Inkscape (http://www.inkscape.org/) -->

<svg
   width="500"
   height="500"
   viewBox="0 0 500 500"
   version="1.1"
   id="svg7757"
   inkscape:version="1.2.2 (732a01da63, 2022-12-09)"
   sodipodi:docname="Temperate.svg"
   inkscape:export-filename="Temperate.png"
   inkscape:export-xdpi="96"
   inkscape:export-ydpi="96"
   xmlns:inkscape="http://www.inkscape.org/namespaces/inkscape"
   xmlns:sodipodi="http://sodipodi.sourceforge.net/DTD/sodipodi-0.dtd"
   xmlns="http://www.w3.org/2000/svg"
   xmlns:svg="http://www.w3.org/2000/svg">
  <sodipodi:namedview
     id="namedview7759"
     pagecolor="#ffffff"
     bordercolor="#000000"
     borderopacity="0.25"
     inkscape:showpageshadow="2"
     inkscape:pageopacity="0.0"
     inkscape:pagecheckerboard="0"
     inkscape:deskcolor="#d1d1d1"
     inkscape:document-units="mm"
     showgrid="false"
     inkscape:zoom="1.0955"
     inkscape:cx="257.4167"
     inkscape:cy="498.40256"
     inkscape:window-width="2560"
     inkscape:window-height="1494"
     inkscape:window-x="-11"
     inkscape:window-y="-11"
     inkscape:window-maximized="1"
     inkscape:current-layer="layer1-9">
    <inkscape:grid
       type="xygrid"
       id="grid7798"
       originx="0"
       originy="0" />
  </sodipodi:namedview>
  <defs
     id="defs7754" />
  <g
     inkscape:label="Layer 1"
     inkscape:groupmode="layer"
     id="layer1-9"
     style="display:inline"
     transform="matrix(3.1235766,0,0,3.1235766,-78.512396,-194.21488)">
    <path
       style="display:inline;fill:#a8dff9;fill-opacity:1;stroke:none;stroke-width:0.264583"
       d="M 25.135416,217.22291 V 62.177083 H 185.20833 V 220.92708 L 25.135416,219.60416 Z"
       id="path7714"
       inkscape:label="Sky" />
    <path
       style="display:inline;fill:#722b19;fill-opacity:1;stroke:none;stroke-width:0.264583"
       d="m 77.445255,183.91671 c 1.931358,0.52918 2.668672,3.29684 2.84427,5.29166 0.490135,5.568 0.711956,11.67429 -0.09922,17.42943 -0.183899,1.30472 -1.430566,2.75339 -2.745052,2.84427 -1.76393,0.12195 -3.161156,-1.82411 -4.173836,-3.27353 -1.001757,-1.43378 -1.374251,-3.25904 -1.620573,-4.99068 -0.384313,-2.70172 -0.0321,-5.46914 0.256844,-8.18271 0.233007,-2.18827 -0.06357,-4.68358 1.187015,-6.49434 0.962419,-1.39351 2.717195,-3.07163 4.350552,-2.6241 z"
       id="path7501"
       sodipodi:nodetypes="assaaaaaa"
       inkscape:label="Trunk Orange" />
    <path
       style="display:inline;fill:#87b540;fill-opacity:1;stroke:none;stroke-width:0.264583"
       d="m 25.135416,222.25 v -5.02709 c 0,0 8.315655,-3.11026 12.435417,-4.7625 2.751653,-1.10356 5.470189,-2.28798 8.202083,-3.43958 5.207558,-2.19519 10.258431,-4.7997 15.610417,-6.61458 5.003712,-1.69677 10.183044,-2.84546 15.345834,-3.96875 6.914161,-1.50434 13.964333,-2.31266 20.902083,-3.70417 5.13983,-1.0309 10.1721,-2.59515 15.34583,-3.43958 5.07542,-0.82838 10.23468,-1.01996 15.34584,-1.5875 5.20796,-0.57829 10.4099,-1.21022 15.61041,-1.85208 3.44162,-0.42477 6.86008,-1.07242 10.31875,-1.32292 10.2933,-0.74552 30.95625,-0.52917 30.95625,-0.52917 V 222.25 Z"
       id="path967"
       sodipodi:nodetypes="ccaaaaaaaaaccc"
       inkscape:label="Grass" />
    <path
       style="fill:#f48030;fill-opacity:1;stroke:none;stroke-width:0.264583"
       d="m 75.604687,72.991927 c 2.850822,0.934078 3.503199,4.898979 4.861718,7.573697 1.563109,3.077525 2.664319,6.376543 3.73724,9.657292 1.437216,4.394678 2.659645,8.868474 3.604948,13.394534 1.048383,5.0196 1.011547,10.24551 2.282031,15.21354 1.826435,7.142 6.093726,13.54894 7.62161,20.76071 1.216991,5.74432 1.116775,11.70576 1.156576,17.57745 0.02422,3.57267 0.344969,7.24711 -0.558676,10.7037 -1.166995,4.46395 -3.265336,8.79535 -6.135916,12.40762 -3.557592,4.47679 -7.622858,9.9347 -13.26224,10.88099 -6.075,1.01939 -12.105265,-3.15352 -17.330208,-6.41615 -2.847172,-1.77787 -5.022547,-4.47241 -7.286584,-6.95058 -2.159482,-2.36373 -4.872414,-4.51395 -5.976225,-7.51931 -1.532086,-4.17143 -0.118946,-8.89182 -0.432132,-13.32466 -0.185696,-2.62833 -0.780217,-5.22429 -0.857142,-7.85805 -0.08338,-2.85468 -0.01476,-5.73589 0.430351,-8.55689 0.287708,-1.82341 1.106432,-3.53197 1.438352,-5.34785 1.021512,-5.58852 0.475702,-11.40855 1.681851,-16.96015 0.729015,-3.35547 1.997892,-6.58324 3.328612,-9.74865 1.176976,-2.7997 3.08758,-5.27299 4.101042,-8.13594 1.249762,-3.530473 1.018306,-7.491867 2.38125,-10.98021 1.219275,-3.120637 3.382464,-5.78443 5.093229,-8.665105 0.984712,-1.658108 1.499878,-3.720622 2.976563,-4.960937 1.953379,-1.640706 4.719558,-3.539343 7.14375,-2.745051 z"
       id="path6740"
       sodipodi:nodetypes="aaaaaaaaaaaaaaaaaaaaaaaa"
       inkscape:label="Leaves Orange" />
    <path
       style="display:inline;fill:#722b19;fill-opacity:1;stroke:none;stroke-width:0.264583"
       d="m 159.14687,168.93646 c -0.09,-1.75495 -3.31488,-1.98288 -5.02708,-1.5875 -2.37057,0.54741 -5.29167,2.59413 -5.29167,5.02708 0,0 -0.27989,6.82274 -0.28063,10.23603 -7.6e-4,3.46842 0.28063,10.40147 0.28063,10.40147 0.0947,1.93194 0.55073,4.66673 2.38125,5.29167 2.83779,0.96882 7.9375,-1.23473 7.9375,-4.23334 0,0 0.39656,-8.84689 0.38885,-13.27318 -0.007,-3.95619 -0.38885,-11.86223 -0.38885,-11.86223 z"
       id="path2922"
       sodipodi:nodetypes="sasasasas"
       inkscape:label="Trunk Green" />
    <path
       style="display:inline;fill:#527234;fill-opacity:1;stroke:none;stroke-width:0.264583"
       d="m 185.20833,170.65625 c -0.44448,2.02414 -6.50907,4.67345 -10.31875,5.02708 -5.50994,0.51145 -10.47367,-4.40734 -16.00729,-4.39953 -2.67743,0.004 -5.17092,1.39341 -7.73907,2.15057 -2.41474,0.71193 -4.7211,1.86981 -7.20989,2.24896 -3.40035,0.51802 -6.91389,0.48753 -10.31875,0 -2.80002,-0.40092 -5.64554,-1.05659 -8.14476,-2.38125 -2.44746,-1.29722 -4.49503,-3.28768 -6.40732,-5.29167 -1.52215,-1.59514 -2.05421,-4.19807 -3.96875,-5.29166 -3.46738,-1.98058 -8.19362,0.14739 -11.90625,-1.32292 -2.04996,-0.81184 -3.929242,-2.2352 -5.291668,-3.96875 -1.348871,-1.71631 -2.25817,-3.86015 -2.579688,-6.01927 -0.506379,-3.40053 1.190427,-6.81521 1.124479,-10.2526 -0.07333,-3.82221 -1.751372,-7.52166 -1.686718,-11.34402 0.09351,-5.52835 0.02755,-11.64853 2.993016,-16.31515 2.357559,-3.70998 7.756259,-4.42767 10.732249,-7.66271 2.97563,-3.23465 3.26272,-8.645659 6.7416,-11.331686 4.32444,-3.338882 10.92243,-1.981475 15.74798,-4.543312 2.52336,-1.339627 4.10436,-4.066843 6.58151,-5.490103 3.25362,-1.869379 6.84455,-3.516963 10.58333,-3.836458 3.42586,-0.292755 6.9177,0.656028 10.15339,1.81901 2.64314,0.950008 4.6234,3.429193 7.34219,4.134115 3.92715,1.018221 8.13526,-0.48259 12.17083,-0.06615 2.51216,0.259238 7.40833,1.5875 7.40833,1.5875 z"
       id="path6039"
       sodipodi:nodetypes="caaaaaaaaaaaaaaaaaaaaaacc"
       inkscape:label="Leaves Green" />
  </g>
</svg>
