<?xml version="1.0" encoding="UTF-8" standalone="no"?>
<!-- Created with Inkscape (http://www.inkscape.org/) -->

<svg
   width="500"
   height="500"
   viewBox="0 0 132.29166 132.29167"
   version="1.1"
   id="svg15154"
   inkscape:version="1.2.2 (732a01da63, 2022-12-09)"
   sodipodi:docname="Grassland.svg"
   xmlns:inkscape="http://www.inkscape.org/namespaces/inkscape"
   xmlns:sodipodi="http://sodipodi.sourceforge.net/DTD/sodipodi-0.dtd"
   xmlns="http://www.w3.org/2000/svg"
   xmlns:svg="http://www.w3.org/2000/svg">
  <sodipodi:namedview
     id="namedview15156"
     pagecolor="#ffffff"
     bordercolor="#000000"
     borderopacity="0.25"
     inkscape:showpageshadow="2"
     inkscape:pageopacity="0.0"
     inkscape:pagecheckerboard="0"
     inkscape:deskcolor="#d1d1d1"
     inkscape:document-units="mm"
     showgrid="false"
     inkscape:zoom="0.84096521"
     inkscape:cx="64.806486"
     inkscape:cy="576.71827"
     inkscape:window-width="2560"
     inkscape:window-height="1494"
     inkscape:window-x="-11"
     inkscape:window-y="-11"
     inkscape:window-maximized="1"
     inkscape:current-layer="layer1-0" />
  <defs
     id="defs15151" />
  <g
     inkscape:label="Layer 1"
     inkscape:groupmode="layer"
     id="layer1">
    <g
       inkscape:groupmode="layer"
       id="layer1-0"
       inkscape:label="Layer1"
       style="display:inline"
       transform="matrix(0.82644626,0,0,0.82644626,-19.679752,-43.732781)">
      <path
         style="display:inline;fill:#ef592c;fill-opacity:1;stroke:none;stroke-width:0.264583"
         d="M 183.88541,182.5625 V 52.916666 H 23.8125 V 187.85416 l 160.07291,-1.32291 z"
         id="path12903"
         inkscape:label="Sky" />
      <path
         id="path12786"
         style="display:inline;fill:#fed652;fill-opacity:1;stroke:none;stroke-width:0.303297"
         inkscape:label="Sun"
         d="M 104.81996,108.74375 A 73.20208,73.20208 0 0 0 31.617708,181.946 73.20208,73.20208 0 0 0 38.553719,212.98958 H 171.08568 a 73.20208,73.20208 0 0 0 6.93601,-31.04358 73.20208,73.20208 0 0 0 -73.20173,-73.20225 z" />
      <path
         id="path3813"
         style="display:inline;fill:#382d29;fill-opacity:1;stroke:none;stroke-width:0.264583"
         inkscape:label="Foreground"
         d="m 128.11104,68.72242 c -0.172,4.89e-4 -0.34385,0.0015 -0.51573,0.0031 -5.03991,0.04617 -10.34231,-0.01652 -14.99908,1.911511 -3.81722,1.580429 -6.62802,4.940705 -9.80405,7.583 -3.511961,2.921758 -6.526387,6.442413 -10.217469,9.134326 -3.884293,2.832823 -8.051493,5.333954 -12.438517,7.300329 -4.259997,1.909439 -9.360645,1.840525 -13.328902,4.29948 -2.947349,1.826344 -8.224685,4.111234 -7.266223,7.443474 1.152836,4.008 8.03259,2.35047 12.161014,2.94142 3.383552,0.48433 6.976272,-0.52428 10.242786,0.48214 3.217178,0.99122 5.416415,4.20882 8.606193,5.28495 3.845372,1.29731 8.332939,-0.25835 12.113988,1.21595 3.84929,1.50091 7.1046,4.40896 9.91568,7.43675 1.88911,2.03476 2.8999,4.74014 4.49016,7.01611 2.29703,3.28751 5.51284,5.97734 7.28483,9.57513 1.40099,2.84453 1.80831,6.08382 2.4908,9.18032 0.85788,3.89223 1.69327,7.81388 2.01073,11.78688 0.39119,4.89561 2.03984,10.33201 -0.14004,14.73295 -1.13923,2.29996 -3.674,3.83254 -6.08077,4.72426 -8.92876,3.30815 -19.01204,1.16908 -28.531073,1.40301 -10.317864,0.25356 -20.787579,1.72745 -30.962968,0 -2.328501,-0.3953 -5.186014,-0.51606 -6.688481,-2.33836 -1.769751,-2.14648 -1.082968,-5.4795 -1.201993,-8.25893 -0.164802,-3.84839 -0.822123,-7.98901 0.680578,-11.53573 1.385635,-3.27041 4.841284,-5.19926 7.205245,-7.85016 2.08111,-2.33373 4.042662,-4.77291 6.142261,-7.09001 1.389162,-1.53307 3.009182,-2.86413 4.26899,-4.50515 0.850343,-1.10765 1.01944,-2.81273 2.193148,-3.56929 4.946623,-3.18855 16.124327,2.58889 17.517277,-2.20658 0.468574,-1.61316 -2.44677,-2.34802 -3.897953,-3.19413 -1.569299,-0.91496 -3.304359,-1.59461 -5.082378,-1.9668 -3.23681,-0.67754 -6.612068,-0.20849 -9.911539,-0.43098 -3.904141,-0.26327 -7.986281,0.19267 -11.690243,-1.06919 -1.914348,-0.65218 -3.109448,-3.05876 -5.122685,-3.25096 -2.947538,-0.2814 -5.39955,2.50918 -8.265128,3.25458 -2.258741,0.58755 -4.682546,0.33846 -6.939111,0.93431 -2.980894,0.78711 -6.177736,1.52061 -8.580872,3.45199 -1.486518,1.19469 -4.008288,2.98445 -3.227193,4.72426 1.255343,2.79613 6.082365,0.76348 9.120373,1.16943 3.009055,0.40208 6.918877,-0.9364 9.020638,1.25419 0.993641,1.03564 0.328267,2.85299 0.415996,4.28553 0.163139,2.66392 0.2154,5.33526 0.204638,8.00416 -0.01331,3.29966 -0.138202,6.59952 -0.332796,9.89345 -0.155348,2.62961 -0.43895,5.25008 -0.666109,7.87446 -0.254033,2.93485 0.02753,5.96988 -0.779281,8.80308 -0.463155,1.62641 -0.972693,3.46078 -2.282031,4.53099 -0.778578,0.63639 -1.91588,0.6452 -2.910417,0.79375 -2.879801,0.43015 -5.819504,0.25981 -8.73125,0.26458 -3.264378,0.005 -9.789583,-0.26458 -9.789583,-0.26458 v 29.10416 H 183.88542 V 182.5625 c 0,0 -10.80486,0.23788 -16.20832,0.2465 -5.00445,0.008 -10.11377,0.84281 -15.01252,-0.18035 -3.32711,-0.69491 -7.37365,-1.23452 -9.39271,-3.96875 -2.72509,-3.69038 -0.92848,-9.12789 -1.38906,-13.69219 -0.59848,-5.93076 -0.59316,-11.95292 -1.78594,-17.79323 -1.0354,-5.06978 -4.51607,-9.6435 -4.6302,-14.81667 -0.0855,-3.87641 1.9901,-7.49501 2.97656,-11.24479 0.8871,-3.37208 -0.0607,-7.92195 2.64583,-10.12031 4.86636,-3.95273 12.53405,-0.4508 18.78542,-0.92604 3.8677,-0.29403 8.0102,0.33715 11.57552,-1.19063 2.29271,-0.98245 5.68437,-2.36738 5.68854,-4.86172 0.004,-2.50151 -5.09952,-2.4636 -5.68854,-4.894789 -1.32754,-5.479408 8.63741,-10.523497 6.35,-15.676562 -2.56678,-5.782454 -11.91918,-4.25019 -17.8263,-6.515365 -5.35778,-2.05452 -10.40765,-5.023268 -15.97422,-6.416146 -5.16911,-1.293422 -10.55636,-1.804193 -15.88844,-1.789038 z m -3.22512,45.91451 c 1.93363,-0.0192 3.84238,0.32816 5.60844,0.93689 1.35132,0.46578 1.35094,2.77047 1.02888,4.16306 -0.42144,1.82233 -1.83525,3.6871 -3.60133,4.30309 -2.70518,0.94354 -6.54469,0.43609 -8.41913,-1.73064 -1.39982,-1.6181 -2.3174,-5.51263 -0.37413,-6.40788 1.86502,-0.85921 3.82363,-1.24529 5.75727,-1.26452 z m -63.209065,21.8953 c 0.624237,-0.001 1.262524,0.0897 1.875338,0.15762 0.945263,0.10467 1.937044,0.2227 2.77089,0.68006 1.068306,0.58596 2.569643,1.30917 2.642733,2.52543 0.17011,2.83069 -3.339962,4.62521 -5.402254,6.57169 -1.971874,1.86113 -3.87097,5.03577 -6.571692,4.79454 -1.319648,-0.11787 -2.422172,-1.5898 -2.745052,-2.87476 -0.728873,-2.90068 0.763932,-6.13937 2.393136,-8.64754 0.852395,-1.31226 2.157015,-2.44027 3.624585,-2.98328 0.449747,-0.1664 0.926799,-0.22289 1.412316,-0.22376 z"
         sodipodi:nodetypes="ssssssssssssssssssssssssssssssssssssssssssssssscccccssssssaaascssssssssssssscssssssss" />
    </g>
  </g>
</svg>
