<svg id="Layer_1" data-name="Layer 1" xmlns="http://www.w3.org/2000/svg" viewBox="0 0 500 500"><defs><style>.cls-1{opacity:0.08;}.cls-2{fill:#010101;}</style></defs><title>pattern-zebra</title><g id="zebra" class="cls-1"><path class="cls-2" d="M379.79,366.5c15.5-14.5,29.5-64,44.81-86.49s21.69-51.68,25.86-67.34,15.17-33,18.17-37,11.66-11.67,8.16-10.46-10,6.29-22.5,26.29-21,44-33.5,66-43.5,71-55,88.5-37,58.5-47,80.5c-9.85,21.68-16.31,54.52-42.32,73.5h26.82c15.75-18.25,25-54.5,36.5-77S364.29,381,379.79,366.5Z"/><path class="cls-2" d="M173.88,239.31c31-25,67-36.74,100-61.71s68.5-49,88.5-73,15.84-44.25,43.17-63.09S468.38,0,468.38,0h-32s-34,24.18-50,34.47-42.5,32-58.5,50.57-22.5,37.91-60.5,57.7-71,64.54-101,81c-9.12,5-17.72,9.24-25.81,13h0c-27.84,14.19-37.42,30.7-58.17,41.95S32.13,300.25,0,322.5v7.26c20.88-16,69.38-17.43,91.88-32.51S142.88,264.28,173.88,239.31Z"/><path class="cls-2" d="M24.05,0c-2.33,1-20,7.83-24,10.83V23.17C13.62,13,36.55,0,36.55,0Z"/><path class="cls-2" d="M13.63,57.88c5-7,12.5-18.35,19.75-23.15S47.13,23.81,53.13,18.35,78.88,0,78.88,0H62.13c-9,3.28-20.41,12.45-25.58,17.25S28.38,24.68,21.63,30.8s-8,8.08-11,13.32S0,59.84,0,59.84V73.17S8.63,64.87,13.63,57.88Z"/><path class="cls-2" d="M60.17,73.91c10.44-5.93,31-35,40.56-40.53S166.88,0,166.88,0H120.35C117.61,2.28,77.91,17.34,72,24.64s-26.35,35-36,42.13S0,99.46,0,99.46v13.69s27.57-12.32,33.35-17.79S49.73,79.84,60.17,73.91Z"/><path class="cls-2" d="M418.55,162.5c-5.67,14.67-26.19,58.51-35.19,74.28s-39.74,52.48-59.24,66c-16.29,11.27-43,30.39-60.58,44.25l0,0a670.93,670.93,0,0,0-69.85,61.59h0c-24.17,23.28-63.94,47.88-77.28,56.88s-26,19.23-54.25,34.5H78.88c38.34-23.83,75-48.17,97.67-59.83a104.41,104.41,0,0,0,9.63-5.72c19.25-10.94,46.38-34.95,82.83-60.21,13.67-8.86,24.93-15.41,35.42-21.38,1.3-.77,2.54-1.48,3.74-2.12h0c.82-.44,1.61-.86,2.38-1.24,9.33-4.67-9,12.33-17,23.54s-16.33,47.79-35.33,69.13S202.62,500,202.62,500H250c41.25-28.95,40.88-70,59.38-97.61s46.5-68.89,63.5-98.89,37-69.5,45-90,26-62.5,40.5-75.5,24.5-16.25,41.62-24.85V99.46c-15.72,14.92-36.62,11.79-44.37,17.29S424.22,147.83,418.55,162.5Z"/><path class="cls-2" d="M128.82,421.75a205.35,205.35,0,0,1,11.66-24c14.25-23.79,28.08-43.63,42.9-56.79,14-12.38,26.4-19.84,35.68-33.66a27.12,27.12,0,0,0,4.11-8.34c5.21-18.5,23.21-57.5,33.71-72.5s-49.5,38-72,49-37.5,20.7-50,27.6-19,23.9-40.5,30.9-47.16,13.5-59.83,14.5S0,361.75,0,361.75V374s22.38-13,38.13-16,47.5-3.25,66-10,42-24.75,61.75-39.75,44.5-25,48.75-26c1.69-.4,1.56,2.09.47,5.72-9.49,18.81-33.16,43.19-48.14,57.7l-.47.46L164.57,348c-9.39,8.86-26.68,23.32-37.48,49.52-11.54,28-23.71,44.25-42.21,61.25-12.58,11.57-21.82,19.89-36.22,28.52-7.08,3.85-15.19,8.05-24.61,12.73H36.56c8-4.55,46-26.48,58.32-36.75C108.63,451.75,121.38,440.75,128.82,421.75Z"/><path class="cls-2" d="M425.38,73.37c-25,24.34-25.5,42.84-37,60.34-7.57,11.52-22.08,47-31.1,69.95-5.39,13.83-6.74,16.82-5.81,17.3.6.31,2-.62,3.57-2.21a70.29,70.29,0,0,0,9.84-13.54c7-12.5,36-62.5,43.67-73.5s10.33-13,35.33-28S484,92,500,73.37V60.05a89.94,89.94,0,0,1-8.4,9.71h0l-1.13,1.12c-7.11,6.51-24.15,12.48-33.92,15.16a115.15,115.15,0,0,0-29.67,12.67c-8.49,5.33-9.33,1.67-2.2-8.91A107.23,107.23,0,0,1,434.13,78c12.5-13.5,46.68-41.76,65.87-54.59V11C473.38,25.71,450.38,49,425.38,73.37Z"/><path class="cls-2" d="M179.27,135.85c12.14-11.85,46.61-35.39,54.28-41.73s16.33-13,14.75-13-2.42,1.09-11.94,7.8c-10.88,7-30,18.4-48.48,24.44-28,9.15-42,47.35-80,68.85S39.38,214.71,0,234.71v23c38.12-20,95.88-47,129.05-68C160.71,169.66,165,151,179.27,135.85Z"/><path class="cls-2" d="M434.88,85c-4.12,3.91-2.75,3.54.8,1s13.52-8.35,17.59-10.47c7.09-3.69,14.8-7.74,20.36-10.78,13.25-7.25,26.37-21,26.37-21V30.46C490.38,40,470.13,61,455.38,70.21S434.88,85,434.88,85Z"/><path class="cls-2" d="M234.19,109c-34.19,34.5-69.81,74.5-94.31,93.5-21.74,16.86-59.62,32.93-84.65,45.42q-4.81,2.43-9.4,4.88L43.56,254A501.9,501.9,0,0,0,0,280.5v13s62.38-32,86.88-43.5,82-50,109.25-71.5,54.75-50.5,70.75-65.35S316.38,74,337.38,60.5c11.19-7.19,22.79-20.19,34.93-32.74h0Q374,26,375.7,24.28c10.14-10.65,21-24.28,21-24.28H385.55s-43.67,39-68.67,51S268.38,74.5,234.19,109Z"/><path class="cls-2" d="M449.22,340.53c-5.34,21.18-22.45,50.74-30.08,62.07S398.63,433,400.88,433.71s9.39-10.26,17.34-17.51,22.7-18.48,31-31.49,18.55-25.56,28.48-29.78,13.93-8,14.06-10.34-7,4.62-16.63,5.62-14.87-4.75-13.37-13,17.17-32.75,38.24-43.5v-13C474.38,296.21,454.55,319.36,449.22,340.53Z"/><path class="cls-2" d="M407.13,73.37c9-13.33,35.66-35.16,43.66-42.91s13-17.6-16,6.33c-25.09,20.72-34.5,22.42-47,52.42s-54.5,75.5-76.5,91-43,58-51.5,77.5-21.25,58-48.75,76.5-44.25,40-56,60-23.5,45.25-20.25,45.5,17-35,32.5-49.5S223.41,344,234.1,332.75s26.38-34,42.37-59,26.66-44,36.66-61.34,41.33-53,53.33-69S398.13,86.71,407.13,73.37Z"/><path class="cls-2" d="M351.29,183.21c5.75-13.5,10-22.25,7.25-21.5s-18,25.75-23.5,34.75-10.75,23.75-19,47.25-19.25,34.75-35.81,55c-10.27,12.55-21.42,27.12-31,38.94h0v0l-2,2.45c-7.59,9.64-5.17,10.6,6.87.25,13-11.16,20-21.33,39.5-39s29.83-22.16,42.66-33.16c12.24-10.49,25.89-16,34.19-26.89,11.81-15.91,18.7-37.21,24.31-49.44,7.5-16.32,23.25-53.42,20.06-53.42s-5.81,10.25-9.81,17-22,46-28,55.75-24.25,23.25-29,29.25-13.25,8-9.5-3.25S342.32,204.26,351.29,183.21Z"/><path class="cls-2" d="M467.4,208.82c-1.36,2.91-2.62,5.88-3.72,8.89-5.5,15-13.75,36.5-20.5,47.5S427.68,292,427.68,292c-6.49,11.46,3.66-1.34,10.33-12,5.88-9.41,19.2-28.84,29-41.5,1.35-1.64,2.6-3.19,3.76-4.7h0a106.88,106.88,0,0,0,11.62-18.64,72.16,72.16,0,0,0,4.43-12.57c4.11-13.58,8.35-26.39,13.14-38V137.75c-9.28,15-27.29,57.78-32.56,71A.42.42,0,0,1,467.4,208.82Z"/><path class="cls-2" d="M442.21,460c-14.08,12.3-35.11,21.8-56.66,40.05h11.17c3.91-5.5,9.91-10.25,22.29-15.88s29.71-13.36,35.22-19.33c15.33-13.32,12-33.13,45.77-49V399.64C460,417.71,453.16,452.59,442.21,460Z"/><path class="cls-2" d="M490.92,444.75c-2.47,5.75-10.26,25.77-17.43,34.83h0a14.61,14.61,0,0,1-1.36,1.12c-9,6.44-15.75,6.47-35.75,19.3h32c10.56-7.78,18.39-12,22.4-17,.47-.65.91-1.29,1.34-1.93a5.44,5.44,0,0,1,.37-.56,30,30,0,0,0,3.89-7.61,62,62,0,0,1,3.62-9.15v-28.4C495.32,439.15,491.82,442.65,490.92,444.75Z"/><path class="cls-2" d="M247.6,51.12c-3.77,1.56-6.07,3.19-.75,1.56,15-4.57,41.38-12.88,53.69-18.43,17.75-8,44.5-24.57,56.25-33.41.34-.26.73-.54,1.16-.84H332.73c-28.2,17.36-64.43,42.56-78.19,48.25Z"/><path class="cls-2" d="M74.74,126.74c-.14-.25-4.52,2.38-6.95,4C56,138.86,38.53,151.05,30.55,157.87,20.23,166.7,6.27,187.8,0,199v19.82C11.38,207,21.46,188.38,29.72,175.54c6.05-9.42,26.59-30.07,39.38-42.59h0C73.87,128.32,74.88,127,74.74,126.74Z"/><path class="cls-2" d="M83.35,97.27c-13.56,8.25-40.47,25.5-46.89,31.5-4.31,4-15.87,19.08-23,28.53-2.67,3.55-3.13,4.45-3.06,4.72s2.2-1.25,4-2.79h0c2.09-1.8,4.54-3.9,7.19-6.13h0c32.88-29.6,45.21-34.27,74.21-48.93s51-26.19,75.34-47.59C193.82,36.6,213.83,17,243.38,3,246.43,1.11,248.76,0,249.91,0H202.53c-23.25,12.52-42.75,39.88-59.25,56.58S96.91,89,83.35,97.27Z"/><path class="cls-2" d="M34.13,116c23.25-16.32,59.75-32.32,74.25-43.82,9.27-7.36,26.52-26.56,37.75-39.46,1.38-1.59,6.06-7.36,5.41-7.39s-2.51,1.42-6.19,4.45c-10.59,8.74-26.44,21.65-38.72,30.9-20.25,15.25-36.5,23.5-54.75,34s-41.25,30.5-49,39a29,29,0,0,0-2.88,4v26.82C8.67,143.57,19.17,126.53,34.13,116Z"/><path class="cls-2" d="M22.38,15.39c.46-.65.74-1.24.64-1.28a8.6,8.6,0,0,0-2,1.08C16.42,17.89,6.71,24,0,30.46H0V43.71H0C7.18,36.93,18.71,20.67,22.38,15.39Z"/><path class="cls-2" d="M478.18,234.24a103.3,103.3,0,0,1-6.95,8.83h0l0,0-.3.34c-1.17,1.33-1.29,1.7-1,1.89s2.56-1.46,3.34-2.12c4.69-4,10.43-8.86,13.61-11.24,6-4.5,13.18-13.13,13.18-13.13V199a53.54,53.54,0,0,0-2.95,5.86C495.35,209.22,485.28,224.05,478.18,234.24Z"/><path class="cls-2" d="M489.39,331.28c-6.46,6.09-11.76,11.59-11.34,12.47s6.6-4.72,12.17-8h0c3.52-2,7.36-4.27,9.76-5.82v-7.25a92.94,92.94,0,0,0-10.61,8.57Z"/><path class="cls-2" d="M412.68,466.27s7.12-4.21,6.57-4.6c-.38-.27-1.59.09-5.3,1.55-2.09.85-4.31,1.73-6.61,2.65h0c-14.74,5.85-33.19,12.88-48.53,19.63-6.65,2.93-15.83,8.2-26.06,14.5H358c9.2-6.56,36.75-23.08,54.73-33.73Z"/><path class="cls-2" d="M243.79,427.5c5.64-7.6,12.79-15.89,18.31-22.06h0a50.42,50.42,0,0,0,3.87-4.82c-.06-.21-.06-.93-5.45,3.18-8.77,6.73-20.57,15.94-24.49,19.7-6.5,6.25-19.75,22.25-34.5,36.5s-26.25,16.25-80.25,40h45.5c27.15-13.45,27.75-18,45.25-30.5S233,442,243.79,427.5Z"/><path class="cls-2" d="M56.13,413c2.83-1.31,5.93-2.9,9.08-4.6h0c3.24-1.74,6.51-3.6,9.57-5.38l.22-.12c3.49-2,8-5.21,7.34-5.39s-2.91.4-8,2.33c-15.69,6-38.91,15-46.76,18.17S8.14,428.84,0,435.52v28.41a152,152,0,0,1,14.63-24.22C21.63,430.46,42.63,419.21,56.13,413Z"/><path class="cls-2" d="M306.74,41.9c-13.17,3.75-34.32,10.24-56.83,18.93-37.12,14.34-68.12,25.26-83.62,38.63s-65.16,54.37-80.5,63.71S62.46,175.5,62.46,175.5,132,109,160.54,89.5s45.75-26,64.25-35.25S284,21.25,303.29,0H276.47c-23,17.17-60,45.65-82,56.58S141.79,89.78,115.79,111c-19.56,16-68.35,63.47-91.33,86-3.38,3.32-5.63,6-5.13,7s6.81-1.11,9-2.12c17.66-8,45.47-21,61.43-30,24.67-14,54.34-38,68.67-53S196.79,92.5,213.13,84.5c12.57-6.16,69.41-30.3,94.9-41.08h0l3.06-1.29c2.24-1,3.32-1.49,3.21-1.83S307.14,41.78,306.74,41.9Z"/><path class="cls-2" d="M432.55,348.71c4.67-17,7.67-41,22.67-58.67S500,257.71,500,257.71v-23s-25.62,18-47.62,39.88-20,56.12-40,90.12S383.13,399,373.13,415s-3.75,22-12.75,34.5c-5.66,7.87-16.28,21.28-23.37,30.14h0L335.1,482c-1.4,2-1,2.64-.38,2.77.75.17,4.78-1.87,5.7-2.38h0c8.28-4.55,19.61-10.22,27-11.66,12.75-2.5,59.5-18.25,71.25-30.25s30-47.25,61.37-66.25V362C451.45,388.2,441.88,423,421.55,436s-42.33,15-42.33,15,10-25,21.66-44.33S427.88,365.71,432.55,348.71Z"/><path class="cls-2" d="M128.49,356.05c-1,.49-2.1,1-3.31,1.58h0a211.73,211.73,0,0,1-48.29,15.61c-34,6.54-48,16-76.88,26.61V416s7.33-3.12,18.22-8.2c23.58-10.09,35.23-12.75,49.22-17.63,17.19-6,37.94-12,39.94-12s-1.82,10.39-7.76,20.58c-.42.72-.85,1.43-1.28,2.15l0,0-.6,1C89.41,415.7,80.28,429.43,77.22,433c-2.38,2.79-7.27,5.53-13.65,8.48h0C47.8,450.2,34,460.12,16.92,478.2l0,0c-8.27,7.82-11,11.32-9.68,11.32,1.17,0,5.43-5.91,12.45-11.46.95-.73,1.93-1.45,2.94-2.19,1.94-1.34,3.83-2.67,5.59-3.94a152.42,152.42,0,0,1,27.68-15.24c29.5-12,26.5-15.5,41.73-34.92,11.63-14.85,27.26-47.37,34-61.86C134.23,354.3,132.69,354.17,128.49,356.05Z"/><path class="cls-2" d="M299.85,172.39c-.46-.07-1.63.52-4.05,2.15l-1.25.85,0,0h0c-1.28.87-2.72,1.81-4.35,2.86-17.33,10.79-56.09,34.23-73.7,44.1-22,12.34-62,42.67-67.67,48.67-2.43,2.58-11,9.1-21.87,16.58l-1.14.77c-11.08,7.33-22.44,14.61-34.12,21.35l-2.07,1.18c-4.3,2.79-9.8,4.79-14.8,7.29C58.33,324.57,41.32,329,25.21,335.8c-4.31,1.9-6,2.87-4.67,3.07s7.29-1.36,10.27-2.11h0c20.94-5.43,42.63-7.35,62.17-16.91l2.17-1.09a183,183,0,0,0,36-23.93l2-1.42C153,279.05,181,260.08,195.79,250.21c19.67-13.17,43.67-27.17,65-43.84,3.41-2.66,6.81-5.41,10.1-8.14h0s13.78-10.21,20.65-16.71c1.58-1.49,3.12-3,4.54-4.34C297.12,176.17,300.4,172.48,299.85,172.39Z"/></g></svg>